<?xml version="1.0" encoding="UTF-8"?>
<svg version="1.1" xmlns="http://www.w3.org/2000/svg" width="1239" height="1024">
<path d="M0 0 C0.66 0.33 1.32 0.66 2 1 C-5.57384597 7.09678887 -13.16107346 13.167705 -20.8828125 19.07666016 C-25.50204491 22.61187198 -30.0975704 26.17683628 -34.6875 29.75 C-35.44909424 30.34280762 -36.21068848 30.93561523 -36.99536133 31.54638672 C-38.55345805 32.75934681 -40.11148163 33.97240086 -41.66943359 35.18554688 C-45.44517266 38.12513338 -49.22265535 41.06247715 -53 44 C-54.50000877 45.16665539 -56.00000876 46.33332207 -57.5 47.5 C-60.5 49.83333333 -63.5 52.16666667 -66.5 54.5 C-67.24290283 55.07782227 -67.98580566 55.65564453 -68.7512207 56.25097656 C-70.24711662 57.41443312 -71.74304745 58.57784478 -73.23901367 59.74121094 C-77.05209776 62.70661998 -80.86452064 65.67287262 -84.67578125 68.640625 C-92.30459492 74.57983564 -99.94506643 80.50235967 -107.61328125 86.390625 C-113.98721641 91.29394626 -120.32446734 96.2448486 -126.66943359 101.18554688 C-130.44517266 104.12513338 -134.22265535 107.06247715 -138 110 C-139.50000877 111.16665539 -141.00000876 112.33332207 -142.5 113.5 C-157.5 125.16666667 -172.5 136.83333333 -187.5 148.5 C-188.24290283 149.07782227 -188.98580566 149.65564453 -189.7512207 150.25097656 C-191.24711662 151.41443312 -192.74304745 152.57784478 -194.23901367 153.74121094 C-198.05209776 156.70661998 -201.86452064 159.67287262 -205.67578125 162.640625 C-213.30459492 168.57983564 -220.94506643 174.50235967 -228.61328125 180.390625 C-234.98721641 185.29394626 -241.32446734 190.2448486 -247.66943359 195.18554688 C-251.44517266 198.12513338 -255.22265535 201.06247715 -259 204 C-260.50000877 205.16665539 -262.00000876 206.33332207 -263.5 207.5 C-266.5 209.83333333 -269.5 212.16666667 -272.5 214.5 C-273.24290283 215.07782227 -273.98580566 215.65564453 -274.7512207 216.25097656 C-276.24711662 217.41443312 -277.74304745 218.57784478 -279.23901367 219.74121094 C-283.05209776 222.70661998 -286.86452064 225.67287262 -290.67578125 228.640625 C-291.44559326 229.23907227 -292.21540527 229.83751953 -293.00854492 230.45410156 C-294.52898858 231.6392646 -296.04616008 232.82863902 -297.55981445 234.02246094 C-300.98947428 236.71803718 -304.42590776 239.32725064 -308.0546875 241.75 C-308.67174561 242.17635742 -309.28880371 242.60271484 -309.92456055 243.04199219 C-311.56109027 244.16338106 -313.22303031 245.24743849 -314.88671875 246.328125 C-317.28514787 249.36051967 -317.27742411 249.87225484 -316.95703125 253.546875 C-316.66570432 255.36922509 -316.34485733 257.18701775 -316 259 C-315.68742806 260.95832185 -315.37493008 262.91665551 -315.0625 264.875 C-314.71165366 266.91723986 -314.35745052 268.9589057 -314 271 C-301.16212005 344.30615509 -319.74621928 419.3227988 -362.125 479.9375 C-369.43564969 490.20602711 -377.48049577 499.71515024 -386 509 C-383.29554611 518.51967769 -376.22881315 523.25597328 -367.90625 527.96875 C-366.96265625 528.47921875 -366.96265625 528.47921875 -366 529 C-370.09612653 530.36537551 -371.74313761 529.09456202 -375.515625 527.30078125 C-382.29603703 523.75065986 -386.81437594 521.19269836 -390 514 C-390.6290625 514.64066406 -391.258125 515.28132812 -391.90625 515.94140625 C-397.10226237 521.19219586 -402.37043587 526.22130145 -408 531 C-408.90878906 531.79792969 -409.81757812 532.59585938 -410.75390625 533.41796875 C-454.53221659 571.59484815 -508.8950823 595.6078675 -566 605 C-566.92200195 605.16226074 -567.84400391 605.32452148 -568.79394531 605.49169922 C-600.489513 610.8932126 -636.36093634 610.61461916 -668 605 C-669.010625 604.82839355 -670.02125 604.65678711 -671.0625 604.47998047 C-700.38260141 599.40430078 -728.02107607 590.40966035 -755 578 C-755 578.99 -755 579.98 -755 581 C-758.14581423 581.02888514 -761.29159469 581.04675923 -764.4375 581.0625 C-765.33533203 581.07087891 -766.23316406 581.07925781 -767.15820312 581.08789062 C-768.01220703 581.09111328 -768.86621094 581.09433594 -769.74609375 581.09765625 C-770.53685303 581.10289307 -771.3276123 581.10812988 -772.14233398 581.11352539 C-774 581 -774 581 -775 580 C-775.04092937 577.66702567 -775.04241723 575.33294775 -775 573 C-773.82695313 572.50371094 -772.65390625 572.00742187 -771.4453125 571.49609375 C-764.41246167 568.36657117 -757.66106397 564.6865784 -750.875 561.0625 C-750.16858368 560.68661743 -749.46216736 560.31073486 -748.73434448 559.92346191 C-738.84251032 554.65863097 -729.04672053 549.25094195 -719.32299805 543.68066406 C-711.32008187 539.12062227 -703.16828449 534.87758884 -694.98046875 530.66088867 C-688.23333192 527.18044848 -681.56516417 523.59261793 -674.94702148 519.8737793 C-668.42237638 516.21386232 -661.84101345 512.66379273 -655.25 509.125 C-647.11121726 504.75405214 -638.98158242 500.36791007 -630.875 495.9375 C-618.25529367 489.0414293 -605.60702922 482.19840855 -592.95898438 475.35449219 C-581.39186702 469.09485923 -569.83172549 462.82301595 -558.28857422 456.51928711 C-550.52093977 452.27929678 -542.73976942 448.06455517 -534.95654297 443.85327148 C-527.43687587 439.78289837 -519.92996782 435.68959843 -512.42749023 431.58764648 C-507.51246251 428.904051 -502.58849904 426.23830546 -497.65234375 423.59375 C-487.14116364 417.9620618 -476.66902214 412.28718085 -466.3125 406.375 C-457.84085031 401.54217971 -449.27071951 396.94861555 -440.60449219 392.47509766 C-430.31000077 387.15385054 -420.15057238 381.58977957 -410 376 C-409.67 376.66 -409.34 377.32 -409 378 C-409.95777344 378.71542969 -410.91554688 379.43085937 -411.90234375 380.16796875 C-421.20239676 387.12379841 -430.44631032 394.14930683 -439.66503906 401.21240234 C-450.89654168 409.81100776 -462.14825388 418.38140978 -473.47607422 426.8527832 C-477.92271389 430.18182128 -482.33758161 433.54958952 -486.734375 436.94433594 C-491.80700409 440.85881658 -496.90229552 444.74324893 -502 448.625 C-502.89678467 449.30788086 -503.79356934 449.99076172 -504.7175293 450.69433594 C-506.56032655 452.09740634 -508.4031819 453.50040043 -510.24609375 454.90332031 C-514.66500299 458.26764589 -519.08244851 461.63389195 -523.5 465 C-525.24999252 466.33334315 -526.99999253 467.66667647 -528.75 469 C-529.61625 469.66 -530.4825 470.32 -531.375 471 C-534 473 -536.625 475 -539.25 477 C-540.54949585 477.99012085 -540.54949585 477.99012085 -541.87524414 479.00024414 C-543.62435561 480.33286176 -545.37354175 481.66538138 -547.12280273 482.99780273 C-551.5120164 486.34128471 -555.89989822 489.68648738 -560.28515625 493.03515625 C-568.89087936 499.60379119 -577.51455836 506.14531268 -586.1875 512.625 C-593.26172664 517.91153087 -600.25723831 523.28809136 -607.21166992 528.73095703 C-613.58191474 533.70445737 -620.04422791 538.54849151 -626.52148438 543.38134766 C-632.98897208 548.21686424 -639.37523543 553.14913598 -645.73608398 558.1237793 C-651.07581158 562.29602447 -656.46856096 566.38750546 -661.91015625 570.42578125 C-663.87991869 571.83346807 -663.87991869 571.83346807 -665 573 C-662.35479758 573.48287851 -659.7089179 573.96136624 -657.0625 574.4375 C-656.32708984 574.57220703 -655.59167969 574.70691406 -654.83398438 574.84570312 C-654.09599609 574.97783203 -653.35800781 575.10996094 -652.59765625 575.24609375 C-651.60004272 575.42676392 -651.60004272 575.42676392 -650.58227539 575.61108398 C-643.54225151 576.67138067 -636.59745577 577.17307444 -629.48046875 577.23828125 C-628.14810936 577.25297203 -628.14810936 577.25297203 -626.78883362 577.26795959 C-559.34160599 577.85789202 -495.01021732 557.57371052 -445 511 C-443.64993836 509.82858546 -442.29592486 508.6617058 -440.9375 507.5 C-433.77529925 501.22947886 -427.3736157 494.49544364 -421.4375 487.0546875 C-419.7099497 484.8897126 -417.96599132 482.7547117 -416.1875 480.6328125 C-374.44968883 430.41550528 -354.61703827 361.82107655 -359.72265625 296.99316406 C-362.98504644 261.78462208 -372.17111038 227.96041785 -388.3046875 196.4453125 C-390 193 -390 193 -390 191 C-391.0209375 191.54805298 -391.0209375 191.54805298 -392.0625 192.10717773 C-406.02615851 199.60080664 -420.00135528 207.07191755 -434 214.5 C-448.68763813 222.2944374 -463.34824195 230.13828525 -478 238 C-493.32943591 246.22533733 -508.67086307 254.42664313 -524.03790283 262.58145142 C-533.41074409 267.55575679 -542.77322838 272.54868633 -552.125 277.5625 C-553.24052246 278.15933594 -554.35604492 278.75617188 -555.50537109 279.37109375 C-561.08345513 282.35675022 -566.65546648 285.35249114 -572.21511841 288.37229919 C-575.00508281 289.88619817 -577.79840031 291.39384192 -580.59222412 292.90060425 C-581.94036251 293.62972428 -583.28694313 294.36173246 -584.63189697 295.09671021 C-586.49295124 296.11342152 -588.35903443 297.12024309 -590.2265625 298.125 C-591.82878662 298.99511719 -591.82878662 298.99511719 -593.46337891 299.8828125 C-594.30046387 300.25148438 -595.13754883 300.62015625 -596 301 C-596.66 300.67 -597.32 300.34 -598 300 C-590.7559656 293.15782444 -583.49433845 286.4734733 -575.7109375 280.2421875 C-572.71095469 277.76093371 -569.8484797 275.15134044 -567 272.5 C-562.41245234 268.23076595 -557.6655672 264.24241039 -552.78125 260.3125 C-549.75980812 257.8002899 -546.87558227 255.17599173 -544 252.5 C-539.41239887 248.23081848 -534.66557272 244.24241483 -529.78125 240.3125 C-526.75980812 237.8002899 -523.87558227 235.17599173 -521 232.5 C-516.41239887 228.23081848 -511.66557272 224.24241483 -506.78125 220.3125 C-503.75980812 217.8002899 -500.87558227 215.17599173 -498 212.5 C-493.41239887 208.23081848 -488.66557272 204.24241483 -483.78125 200.3125 C-480.75980812 197.8002899 -477.87558227 195.17599173 -475 192.5 C-470.41239887 188.23081848 -465.66557272 184.24241483 -460.78125 180.3125 C-457.75980812 177.8002899 -454.87558227 175.17599173 -452 172.5 C-447.41239887 168.23081848 -442.66557272 164.24241483 -437.78125 160.3125 C-434.75980812 157.8002899 -431.87558227 155.17599173 -429 152.5 C-424.41560084 148.23379821 -419.67491165 144.2455703 -414.7890625 140.32421875 C-410.73478646 136.94565538 -406.93084099 133.3219797 -403.1171875 129.67578125 C-396.38189514 123.63690543 -388.42425482 119.49723556 -380.36572266 115.52050781 C-379.34154236 115.00900177 -378.31736206 114.49749573 -377.262146 113.9704895 C-373.89887893 112.29242859 -370.53148405 110.62283101 -367.1640625 108.953125 C-364.80076308 107.77555088 -362.43776145 106.59737895 -360.07504272 105.41864014 C-354.49394365 102.63531009 -348.90998899 99.85776413 -343.32480371 97.08264422 C-333.37201748 92.13718382 -323.42396762 87.18221023 -313.47720754 82.22464252 C-309.44908117 80.21731511 -305.41888725 78.21418096 -301.38809204 76.21221924 C-291.28796085 71.18909717 -281.2297724 66.10971614 -271.2662611 60.82059383 C-260.31790172 55.02470722 -249.22537016 49.50969118 -238.15234375 43.95703125 C-236.94661462 43.35213519 -235.74089638 42.74721743 -234.53518867 42.14227867 C-228.89148059 39.31098566 -223.24685774 36.48152699 -217.60105795 33.65440732 C-211.11474918 30.4063202 -204.63184646 27.15155403 -198.15158457 23.89142019 C-193.10687282 21.3540301 -188.05914055 18.82271968 -183.00906569 16.29602069 C-180.0048158 14.79272057 -177.00194765 13.28680222 -174.00227165 11.77439308 C-170.67959259 10.10099214 -167.35210508 8.43757055 -164.02319336 6.77661133 C-163.03165253 6.27443588 -162.04011169 5.77226044 -161.01852417 5.25486755 C-160.11767593 4.80791534 -159.2168277 4.36096313 -158.28868103 3.90046692 C-157.50402434 3.5069444 -156.71936766 3.11342188 -155.91093349 2.70797443 C-154.96502141 2.35752709 -154.96502141 2.35752709 -154 2 C-153.34 2.33 -152.68 2.66 -152 3 C-158.53033179 9.09725569 -165.12449608 15.01382321 -172.0859375 20.62109375 C-175.43982066 23.35904931 -178.72195984 26.17213042 -182 29 C-186.10218745 32.53623495 -190.22802486 36.02863826 -194.4375 39.4375 C-198.87239317 43.03636029 -203.19567786 46.74732064 -207.5 50.5 C-212.65855495 54.99743351 -217.88156886 59.38995284 -223.19921875 63.69921875 C-227.07166793 66.88035204 -230.86728783 70.14753555 -234.66601562 73.41601562 C-240.2141872 78.18974231 -245.79874354 82.91931007 -251.39111328 87.64111328 C-253.55303163 89.46709773 -255.7132358 91.29510325 -257.87329102 93.12329102 C-258.95566254 94.03931879 -260.03818153 94.95517236 -261.12084961 95.87084961 C-263.85636732 98.18456788 -266.59001211 100.50043895 -269.3203125 102.8203125 C-274.30314347 107.05079624 -279.29702715 111.2585368 -284.375 115.375 C-289.49733524 119.54156423 -294.47417378 123.86201281 -299.45043945 128.20043945 C-303.96215363 132.12489097 -308.55325555 135.93426783 -313.19921875 139.69921875 C-317.06724608 142.87671958 -320.85881643 146.13984174 -324.65283203 149.4050293 C-328.73123865 152.91478503 -332.82660767 156.40335412 -336.9375 159.875 C-341.30704113 163.56566317 -345.66446206 167.26942084 -350 171 C-348.34229667 175.49324849 -346.15017838 179.61186146 -343.875 183.8125 C-343.50246094 184.50537109 -343.12992188 185.19824219 -342.74609375 185.91210938 C-341.83309623 187.60934836 -340.91687284 189.30485138 -340 191 C-339.32630371 190.63213379 -338.65260742 190.26426758 -337.95849609 189.88525391 C-333.25965764 187.32069238 -328.55920282 184.7593109 -323.8515625 182.2109375 C-313.86912224 176.79939911 -303.94830021 171.29803927 -294.10351562 165.63989258 C-287.30306933 161.73417969 -280.47103875 157.8876853 -273.625 154.0625 C-264.62252478 149.03192816 -255.63538661 143.97546979 -246.66235352 138.89257812 C-241.73237136 136.10219726 -236.79599316 133.32412584 -231.84765625 130.56640625 C-221.48318761 124.78934366 -211.16429901 118.95547508 -200.9375 112.9375 C-191.98926668 107.67568674 -182.93325213 102.65908921 -173.78662109 97.75146484 C-166.4554739 93.81110793 -159.21226263 89.73829426 -151.9987793 85.5871582 C-145.2345655 81.69654271 -138.43728672 77.86827309 -131.625 74.0625 C-123.57152268 69.56229954 -115.52791871 65.04564628 -107.5 60.5 C-99.47208009 55.95435304 -91.42836197 51.43790816 -83.375 46.9375 C-75.72785243 42.66298877 -68.09971915 38.35827752 -60.5 34 C-51.86115398 29.04580529 -43.18167838 24.16713025 -34.48803711 19.30981445 C-26.00332978 14.56779774 -17.53839153 9.79152208 -9.08251953 4.99829102 C-8.18001465 4.48709717 -7.27750977 3.97590332 -6.34765625 3.44921875 C-5.55367432 2.99893311 -4.75969238 2.54864746 -3.94165039 2.0847168 C-2.6440744 1.35981674 -1.32941598 0.66470799 0 0 Z " fill="#005B9E" transform="translate(1237,198)"/>
<path d="M0 0 C0.8531076 -0.00100708 1.70621521 -0.00201416 2.58517456 -0.00305176 C18.03663151 0.00919744 33.13523465 0.97464313 48.4375 3.25 C49.39285645 3.38921875 50.34821289 3.5284375 51.33251953 3.671875 C86.00402717 8.90256866 120.84940959 20.03728085 151.4375 37.25 C149.16099306 39.76700557 146.90399705 41.21232817 143.88671875 42.74609375 C142.97293457 43.2155542 142.05915039 43.68501465 141.11767578 44.16870117 C140.13009277 44.66990479 139.14250977 45.1711084 138.125 45.6875 C130.37795028 49.66967913 122.68575117 53.72335517 115.0625 57.9375 C105.7111009 63.08690695 96.24653641 68.00063511 86.75 72.875 C86.02988739 73.24464874 85.30977478 73.61429749 84.56784058 73.99514771 C81.74383766 75.44450118 78.91971773 76.89362631 76.09541321 78.34239197 C65.72684631 83.66378888 55.42296043 89.10252461 45.16015625 94.625 C42.83604344 95.87519757 40.5118461 97.12523637 38.1875 98.375 C37.60042267 98.69081024 37.01334534 99.00662048 36.40847778 99.33200073 C26.18642888 104.82629324 15.88932495 110.16523349 5.56420898 115.46276855 C-2.4538803 119.57914118 -10.42464384 123.76265018 -18.3125 128.125 C-28.55428501 133.78834744 -38.96310735 139.10909334 -49.38220215 144.43597412 C-58.17153676 148.9319728 -66.92563759 153.46525932 -75.5625 158.25 C-84.95905149 163.4556013 -94.49908287 168.36061966 -104.0625 173.25 C-113.66725336 178.16058216 -123.24818123 183.08825747 -132.6875 188.3125 C-141.78448584 193.34638418 -151.00090566 198.12863877 -160.25 202.875 C-161.32332581 203.42580231 -161.32332581 203.42580231 -162.41833496 203.98773193 C-165.22125044 205.42584159 -168.02422287 206.86384011 -170.82736206 208.30151367 C-176.37942684 211.15106454 -181.91584308 214.02941214 -187.4375 216.9375 C-188.17564941 217.32542725 -188.91379883 217.71335449 -189.67431641 218.11303711 C-192.82943216 219.77809412 -195.96732576 221.46518801 -199.07421875 223.21875 C-200.58435547 224.06953125 -200.58435547 224.06953125 -202.125 224.9375 C-202.95128906 225.41574219 -203.77757812 225.89398438 -204.62890625 226.38671875 C-205.26699219 226.67160156 -205.90507812 226.95648438 -206.5625 227.25 C-207.2225 226.92 -207.8825 226.59 -208.5625 226.25 C-200.00659059 219.16773052 -191.040807 212.65521114 -182.08251953 206.09667969 C-178.06972543 203.15608924 -174.0663868 200.20270051 -170.0625 197.25 C-165.32638193 193.75876823 -160.58928457 190.26890182 -155.84765625 186.78515625 C-147.72278254 180.81256696 -139.62309382 174.80912726 -131.5625 168.75 C-121.94282164 161.51891297 -112.26086274 154.37504253 -102.5625 147.25 C-93.5372509 140.61678806 -84.51367479 133.98300594 -75.5625 127.25 C-65.80580499 119.91108784 -55.96288207 112.68979989 -46.12597656 105.45898438 C-37.9139643 99.42122526 -29.70816232 93.37710556 -21.5625 87.25 C-11.8272899 79.92724863 -2.00758254 72.71963762 7.80957031 65.50732422 C10.16526293 63.77646172 12.52034298 62.04477103 14.875 60.3125 C15.64360352 59.74716553 16.41220703 59.18183105 17.20410156 58.59936523 C24.21199782 53.43515419 31.17271946 48.2086964 38.11694336 42.95922852 C38.91495361 42.35780029 39.71296387 41.75637207 40.53515625 41.13671875 C41.59488647 40.33560669 41.59488647 40.33560669 42.67602539 39.51831055 C44.4375 38.25 44.4375 38.25 46.4375 37.25 C46.7675 36.26 47.0975 35.27 47.4375 34.25 C44.50010628 33.93647507 41.56259139 33.62416319 38.625 33.3125 C37.81095703 33.22548828 36.99691406 33.13847656 36.15820312 33.04882812 C33.58524148 32.77639689 31.01141129 32.51329251 28.4375 32.25 C27.16942505 32.11102295 27.16942505 32.11102295 25.87573242 31.96923828 C18.04767434 31.16662103 10.24005043 31.00692842 2.375 31 C1.67874512 30.99932526 0.98249023 30.99865051 0.26513672 30.99795532 C-13.4950859 31.01891216 -26.96331195 32.07081091 -40.5625 34.25 C-41.54025391 34.4056543 -42.51800781 34.56130859 -43.52539062 34.72167969 C-87.14706291 42.01135875 -128.96891489 61.52985048 -162.5625 90.25 C-163.69472165 91.1973212 -164.82756892 92.14389502 -165.9609375 93.08984375 C-176.33610805 101.79926942 -185.94083057 110.88914697 -194.39453125 121.52734375 C-195.80046131 123.29298924 -197.23412233 125.03703823 -198.69921875 126.75390625 C-209.71233231 139.70469509 -218.60323487 154.26763272 -226.5625 169.25 C-227.07224365 170.19576904 -227.07224365 170.19576904 -227.59228516 171.16064453 C-243.02207397 199.96144115 -252.29044337 232.79576394 -255.5625 265.25 C-255.67335938 266.29800781 -255.78421875 267.34601563 -255.8984375 268.42578125 C-260.02525858 314.99193803 -251.12522869 361.50014747 -231.49487305 403.75463867 C-231.12789307 404.54588135 -230.76091309 405.33712402 -230.3828125 406.15234375 C-230.05555176 406.84835693 -229.72829102 407.54437012 -229.39111328 408.26147461 C-228.566601 410.24015832 -228.02540285 412.15991462 -227.5625 414.25 C-216.7609567 408.69651164 -206.04738633 403.02403606 -195.5 397 C-186.92907237 392.10557431 -178.27665218 387.38327943 -169.5625 382.75 C-160.99724323 378.19491797 -152.4874595 373.56087701 -144.0625 368.75 C-135.63752959 363.93911676 -127.12757667 359.30543167 -118.5625 354.75 C-109.00898096 349.66860641 -99.54310646 344.45685306 -90.14453125 339.09375 C-83.008621 335.03451872 -75.80178916 331.12145755 -68.5625 327.25 C-59.0967272 322.18733874 -49.70992925 317.00477078 -40.38476562 311.6875 C-37.78051482 310.20267103 -35.1716015 308.7262848 -32.5625 307.25 C-31.56202637 306.67507813 -30.56155273 306.10015625 -29.53076172 305.5078125 C-28.53963379 304.94835937 -27.54850586 304.38890625 -26.52734375 303.8125 C-25.17370728 303.04099609 -25.17370728 303.04099609 -23.79272461 302.25390625 C-23.05675049 301.92261719 -22.32077637 301.59132813 -21.5625 301.25 C-20.9025 301.58 -20.2425 301.91 -19.5625 302.25 C-24.33654589 307.12350518 -29.15467063 311.86104466 -34.33203125 316.3046875 C-37.1211588 318.73723658 -39.84165879 321.24180377 -42.5625 323.75 C-46.49511507 327.37115098 -50.46464646 330.93959475 -54.50390625 334.44140625 C-57.0520665 336.6801125 -59.55660593 338.96410212 -62.0625 341.25 C-65.18157011 344.09524228 -68.31005391 346.9219958 -71.5 349.6875 C-75.44917367 353.11768576 -79.29272305 356.66003518 -83.14038086 360.20288086 C-86.52712619 363.31599299 -89.96156249 366.36252082 -93.4375 369.375 C-96.18073494 371.79550142 -98.87131243 374.27204178 -101.5625 376.75 C-105.52109723 380.3941694 -109.51426832 383.98913779 -113.578125 387.515625 C-117.61624691 391.04500714 -121.58164681 394.65634226 -125.5625 398.25 C-127.22890851 399.75028679 -128.89557353 401.25028872 -130.5625 402.75 C-131.3875 403.4925 -132.2125 404.235 -133.0625 405 C-150.5625 420.75 -150.5625 420.75 -153.0546875 422.9921875 C-154.74842894 424.51708244 -156.44111169 426.04315402 -158.1328125 427.5703125 C-161.87814256 430.94912708 -165.62768207 434.31895965 -169.4375 437.625 C-173.40502724 441.07851561 -177.2709764 444.6400394 -181.14013672 448.20263672 C-184.5269456 451.31585044 -187.96147544 454.36244538 -191.4375 457.375 C-194.18073944 459.79550539 -196.87111918 462.27224728 -199.5625 464.75 C-207.67556778 472.20824077 -207.67556778 472.20824077 -211.41308594 475.40380859 C-212.89518305 476.67682294 -214.36245582 477.96723164 -215.81713867 479.27148438 C-223.24720381 485.70320374 -231.00333441 489.9021597 -239.8125 494.125 C-241.11001325 494.7604171 -242.40689021 495.39713516 -243.703125 496.03515625 C-249.50942655 498.88228729 -255.34040812 501.67638288 -261.18945312 504.43457031 C-282.15660802 514.34729656 -302.8344842 524.84975878 -323.5625 535.25 C-331.33206631 539.14836463 -339.10239162 543.0452036 -346.875 546.9375 C-347.81420603 547.40787374 -348.75341206 547.87824749 -349.72107887 548.36287498 C-360.30768434 553.66189135 -370.91160726 558.90515716 -381.61967468 563.95527649 C-391.52574637 568.65589584 -401.31297955 573.59563402 -411.11328125 578.51171875 C-412.03316708 578.97300297 -412.9530529 579.43428719 -413.90081406 579.90954971 C-422.53173205 584.23823397 -431.16004008 588.57210614 -439.78637695 592.90991211 C-444.55091935 595.30552495 -449.3173727 597.69729814 -454.08504295 600.08667946 C-455.88998955 600.99225665 -457.69417572 601.89935112 -459.49758339 602.80798912 C-461.99310081 604.06529146 -464.49099616 605.31774113 -466.98950195 606.5690918 C-468.10270813 607.13226608 -468.10270813 607.13226608 -469.23840332 607.70681763 C-474.33459551 610.25 -474.33459551 610.25 -476.5625 610.25 C-476.5625 609.59 -476.5625 608.93 -476.5625 608.25 C-474.5985829 606.56532736 -472.62441296 604.99490234 -470.5625 603.4375 C-469.26982004 602.4427216 -467.97819367 601.44657295 -466.6875 600.44921875 C-466.00945312 599.92634277 -465.33140625 599.4034668 -464.6328125 598.86474609 C-461.23277828 596.21287978 -457.89928046 593.4807213 -454.5625 590.75 C-449.62362986 586.71723054 -444.65429223 582.73187946 -439.625 578.8125 C-433.61954749 574.12934896 -427.74399691 569.29918345 -421.87915039 564.44165039 C-416.93715665 560.35748266 -411.93024396 556.37108479 -406.87109375 552.43359375 C-402.20150956 548.7851487 -397.6260992 545.02985286 -393.0625 541.25 C-387.25435874 536.4395001 -381.39028059 531.7170584 -375.44482422 527.07763672 C-371.08809655 523.67484539 -366.79732388 520.19879057 -362.52734375 516.6875 C-353.26091506 509.06925032 -343.94685672 501.51775684 -334.49633789 494.12890625 C-330.12498229 490.70616413 -325.81569163 487.21389473 -321.52734375 483.6875 C-312.26455769 476.07224506 -302.95466085 468.52297668 -293.50732422 461.13769531 C-287.07913118 456.10501192 -280.76630826 450.93349669 -274.5078125 445.69140625 C-273.51523437 444.86511719 -272.52265625 444.03882813 -271.5 443.1875 C-270.60152344 442.43339844 -269.70304687 441.67929687 -268.77734375 440.90234375 C-266.5625 439.25 -266.5625 439.25 -264.5625 439.25 C-268.02787555 432.20865182 -271.59884011 425.26262904 -275.4609375 418.4296875 C-276.5625 416.25 -276.5625 416.25 -276.5625 414.25 C-288.97670035 420.90851091 -301.34386373 427.62961298 -313.5534668 434.65722656 C-320.36110586 438.57361751 -327.20491406 442.42180457 -334.0625 446.25 C-342.65323255 451.04863986 -351.21677529 455.89100329 -359.75439453 460.78344727 C-369.03227976 466.09829728 -378.34352373 471.35366357 -387.65527344 476.60888672 C-393.42105906 479.86364075 -399.18435158 483.12280753 -404.94799805 486.38134766 C-409.67645683 489.05438988 -414.40566084 491.7260916 -419.13671875 494.39453125 C-428.99250907 499.95573021 -438.83281098 505.54278547 -448.65338135 511.16595459 C-460.2468127 517.80408741 -471.87971908 524.36795368 -483.54296875 530.8828125 C-492.28740092 535.76886794 -501.00266795 540.70644792 -509.71972656 545.64111328 C-513.53957154 547.8029802 -517.36067857 549.96261055 -521.18188477 552.12207031 C-523.104333 553.20850855 -525.02669611 554.29509742 -526.94897461 555.38183594 C-531.67707222 558.05477858 -536.4059774 560.72627014 -541.13671875 563.39453125 C-552.18051553 569.6260712 -563.20073804 575.89749954 -574.20446777 582.19946289 C-583.98865265 587.8010696 -593.80914034 593.33426237 -603.65771484 598.82202148 C-604.62531738 599.36157471 -605.59291992 599.90112793 -606.58984375 600.45703125 C-607.43281006 600.9260083 -608.27577637 601.39498535 -609.14428711 601.87817383 C-610.87699227 602.86111883 -612.57555792 603.90520472 -614.24829102 604.98706055 C-615.01197998 605.40383057 -615.77566895 605.82060059 -616.5625 606.25 C-617.2225 605.92 -617.8825 605.59 -618.5625 605.25 C-611.44179931 599.15424866 -604.15963882 593.37640131 -596.63549805 587.78857422 C-592.16366487 584.46354215 -587.74676611 581.080491 -583.375 577.625 C-576.81558373 572.44072147 -570.19824652 567.33604449 -563.5625 562.25 C-556.29173664 556.67204796 -549.04112021 551.06995085 -541.8125 545.4375 C-535.22214379 540.30309615 -528.60127735 535.21094937 -521.95800781 530.14526367 C-516.80283446 526.20983053 -511.67718815 522.23787217 -506.5625 518.25 C-500.05586207 513.17683824 -493.51787713 508.14732839 -486.95703125 503.14453125 C-481.80219641 499.20932462 -476.67689456 495.23758737 -471.5625 491.25 C-463.57205436 485.02071733 -455.53187641 478.85872567 -447.47753906 472.71240234 C-439.55603457 466.66321673 -431.67503551 460.56301227 -423.8125 454.4375 C-417.2221044 449.30314626 -410.60127788 444.21094977 -403.95800781 439.14526367 C-398.80283446 435.20983053 -393.67718815 431.23787217 -388.5625 427.25 C-382.05586207 422.17683824 -375.51787713 417.14732839 -368.95703125 412.14453125 C-363.80219682 408.20932493 -358.67686722 404.23762194 -353.5625 400.25 C-347.06037657 395.18035815 -340.52792782 390.1529999 -333.97021484 385.15551758 C-328.68058898 381.11921496 -323.43060024 377.03398037 -318.1875 372.9375 C-311.739315 367.90257794 -305.22410688 363.00026319 -298.5625 358.25 C-298.68294678 357.5381958 -298.80339355 356.8263916 -298.92749023 356.09301758 C-305.28808173 318.25164041 -305.28808173 318.25164041 -305.5625 304.25 C-305.58296387 303.33492676 -305.60342773 302.41985352 -305.62451172 301.47705078 C-307.15913265 221.00457287 -277.16682148 148.84462743 -222.1015625 90.88671875 C-212.65013665 81.08686513 -202.40839379 72.45666732 -191.5625 64.25 C-190.97243164 63.7977002 -190.38236328 63.34540039 -189.77441406 62.87939453 C-179.80367571 55.25104854 -169.40169798 48.57417974 -158.5625 42.25 C-157.80404785 41.80156738 -157.0455957 41.35313477 -156.26416016 40.89111328 C-109.08987888 13.16561506 -54.48405783 0.04497185 0 0 Z " fill="#005B9E" transform="translate(618.5625,223.75)"/>
<path d="M0 0 C0 0.66 0 1.32 0 2 C-1.625 3.48828125 -1.625 3.48828125 -4 5.3125 C-5.37285156 6.38371094 -5.37285156 6.38371094 -6.7734375 7.4765625 C-7.28745117 7.87649414 -7.80146484 8.27642578 -8.33105469 8.68847656 C-11.46119262 11.14826313 -14.5394183 13.67222666 -17.625 16.1875 C-19.01293634 17.31651013 -20.40095843 18.44541485 -21.7890625 19.57421875 C-22.48676758 20.14188965 -23.18447266 20.70956055 -23.90332031 21.29443359 C-27.26762714 24.03116479 -30.63388328 26.7654955 -34 29.5 C-35.3333433 30.58332107 -36.66667662 31.66665442 -38 32.75 C-62.00000001 52.25 -62.00000001 52.25 -64.0012207 53.87597656 C-65.33050495 54.95603016 -66.65976937 56.03610817 -67.98901367 57.11621094 C-71.38413329 59.87492773 -74.77962852 62.63318009 -78.17578125 65.390625 C-83.95735602 70.08543759 -89.73849273 74.78055907 -95.5 79.5 C-101.9574452 84.78950668 -108.43918576 90.04902661 -114.91943359 95.31054688 C-118.28025428 98.03958691 -121.6400889 100.76984025 -125 103.5 C-126.33332835 104.58333946 -127.66666169 105.66667279 -129 106.75 C-129.66 107.28625 -130.32 107.8225 -131 108.375 C-216.99999999 178.25 -216.99999999 178.25 -219.0012207 179.87597656 C-220.33050495 180.95603016 -221.65976937 182.03610817 -222.98901367 183.11621094 C-226.38413329 185.87492773 -229.77962852 188.63318009 -233.17578125 191.390625 C-233.8615625 191.94790283 -234.54734375 192.50518066 -235.25390625 193.0793457 C-236.61823706 194.18657005 -237.98410673 195.29190107 -239.3515625 196.39526367 C-242.24186284 198.73151852 -245.09360237 201.08220289 -247.88671875 203.53515625 C-252.67696617 207.709617 -257.48792416 210.95303312 -263.203125 213.71875 C-263.89710388 214.05997391 -264.59108276 214.40119781 -265.30609131 214.75276184 C-267.53336872 215.84369698 -269.76559126 216.92375214 -272 218 C-272.72815918 218.35081635 -273.45631836 218.70163269 -274.20654297 219.06307983 C-279.54362855 221.62733186 -284.89538274 224.16011142 -290.25 226.6875 C-291.93344708 227.48360856 -293.61687781 228.27975168 -295.30029297 229.07592773 C-305.99462003 234.12964819 -316.7108396 239.13387313 -327.44677734 244.09863281 C-337.71752927 248.85358309 -347.94995213 253.688068 -358.18069458 258.52835083 C-370.0251512 264.13151509 -381.88347215 269.70365204 -393.76831055 275.22070312 C-399.19137862 277.74129974 -404.60247987 280.27869741 -409.9765625 282.90234375 C-410.86851318 283.33546875 -411.76046387 283.76859375 -412.67944336 284.21484375 C-414.29383787 285.00184732 -415.90438864 285.79681095 -417.51000977 286.6015625 C-422.66741365 289.11086212 -422.66741365 289.11086212 -426 288 C-425.5153125 287.55197021 -425.030625 287.10394043 -424.53125 286.64233398 C-422.33577613 284.59278524 -420.16814793 282.51591884 -418 280.4375 C-417.236875 279.73302734 -416.47375 279.02855469 -415.6875 278.30273438 C-411.11837156 274.00826161 -411.11837156 274.00826161 -409.5625 268.09765625 C-409.7790625 266.56431641 -409.7790625 266.56431641 -410 265 C-409.67 264.34 -409.34 263.68 -409 263 C-407.76507813 262.88914062 -406.53015625 262.77828125 -405.2578125 262.6640625 C-397.41791331 261.06629911 -392.17944822 253.93512052 -386.875 248.375 C-385.72424854 247.19766031 -384.57191521 246.02186459 -383.41796875 244.84765625 C-378.99648811 240.32685584 -374.61300085 235.78910638 -370.5078125 230.9765625 C-364.83747751 224.36552678 -358.44219542 218.39008028 -352.25195312 212.27246094 C-343.73609788 203.85826124 -343.73609788 203.85826124 -335.70556641 194.98535156 C-321.77800902 178.77308464 -308.51253955 167.91305681 -289.17236328 158.57373047 C-284.16276475 156.08859332 -279.34094264 153.29571052 -274.5 150.5 C-266.39821429 145.87492337 -258.22623143 141.39966784 -250 137 C-240.77391725 132.06519779 -231.63405169 127.00300117 -222.54296875 121.82421875 C-214.74682742 117.39385981 -206.87171806 113.12147825 -198.97558594 108.87255859 C-192.14289131 105.18617929 -185.37081169 101.40528652 -178.625 97.5625 C-169.39080842 92.30396449 -160.06207568 87.24220387 -150.69189453 82.23071289 C-143.57306976 78.41316509 -136.51758627 74.50031617 -129.5 70.5 C-120.30818399 65.26028241 -111.0209383 60.22017125 -101.69140625 55.23046875 C-94.57275603 51.41297618 -87.51746849 47.50015787 -80.5 43.5 C-71.1915469 38.19488649 -61.7893621 33.08302674 -52.34643555 28.02172852 C-41.09967661 21.99117511 -29.93842676 15.82265106 -18.85546875 9.49609375 C-17.80190186 8.89611572 -16.74833496 8.2961377 -15.6628418 7.67797852 C-13.58521878 6.49362915 -11.50978433 5.30543066 -9.43676758 4.11303711 C-8.49857178 3.57815674 -7.56037598 3.04327637 -6.59375 2.4921875 C-5.75521484 2.01120605 -4.91667969 1.53022461 -4.05273438 1.03466797 C-2 0 -2 0 0 0 Z " fill="#005B9E" transform="translate(717,547)"/>
<path d="M0 0 C-0.84183838 0.83660156 -1.68367676 1.67320312 -2.55102539 2.53515625 C-5.70516442 5.67105076 -8.85587441 8.810372 -12.00561523 11.95068359 C-13.36342127 13.30349355 -14.72212751 14.65540066 -16.08178711 16.00634766 C-18.04784788 17.96013408 -20.01053445 19.91725874 -21.97265625 21.875 C-22.57086685 22.46804932 -23.16907745 23.06109863 -23.78541565 23.67211914 C-26.75765555 26.64397203 -29.61065835 29.6660816 -32.35131836 32.85351562 C-36.47597545 37.6222617 -40.92773827 42.03454802 -45.40625 46.46875 C-46.28978149 47.34849487 -47.17331299 48.22823975 -48.08361816 49.13464355 C-51.3597232 52.39656945 -54.6403498 55.65392564 -57.92132568 58.91094971 C-61.14830538 62.1148726 -64.3713808 65.32269116 -67.59375 68.53125 C-68.43248657 69.36168823 -69.27122314 70.19212646 -70.13537598 71.04772949 C-74.40039675 75.29508973 -78.50310767 79.61248933 -82.42785645 84.17626953 C-96.40766897 100.39324283 -110.42059018 113.8988425 -130.17333984 122.67822266 C-135.11423862 124.98864121 -139.78618429 127.76325493 -144.5 130.5 C-153.04677175 135.39424312 -161.69799777 140.0327305 -170.44750977 144.55297852 C-179.76916845 149.37501781 -188.97044247 154.40517815 -198.17138672 159.45263672 C-203.10527384 162.15166801 -208.05318218 164.82476537 -213 167.5 C-220.67440793 171.65257792 -228.3417255 175.81774346 -236 180 C-244.66919318 184.73432884 -253.35174568 189.4435539 -262.0390625 194.14453125 C-268.69972594 197.75023924 -275.35262403 201.36985996 -282 205 C-294.6627639 211.91431084 -307.3520455 218.77944658 -320.04101562 225.64550781 C-330.70241692 231.41500568 -341.36034995 237.19046796 -352 243 C-359.61766131 247.15944578 -367.24279148 251.30480547 -374.875 255.4375 C-375.85750732 255.96964111 -376.84001465 256.50178223 -377.85229492 257.05004883 C-383.14813652 259.91746066 -388.44611174 262.78087318 -393.74609375 265.640625 C-394.84518066 266.23431885 -395.94426758 266.8280127 -397.07666016 267.43969727 C-399.19155858 268.58203602 -401.30709222 269.72319976 -403.42333984 270.86303711 C-404.37289551 271.37616455 -405.32245117 271.88929199 -406.30078125 272.41796875 C-407.13778564 272.86938232 -407.97479004 273.3207959 -408.8371582 273.78588867 C-410.60487424 274.77819614 -412.31327703 275.87551802 -414 277 C-414.99 276.67 -415.98 276.34 -417 276 C-408.37352233 268.84169155 -399.72358598 261.72666893 -390.88574219 254.83032227 C-386.52789108 251.42661251 -382.23594515 247.9497126 -377.96484375 244.4375 C-369.3980773 237.39446671 -360.80852369 230.38220345 -352.0625 223.5625 C-346.06169693 218.88268255 -340.19037012 214.05641858 -334.32983398 209.20263672 C-329.24112617 204.99738913 -324.08650766 200.88862044 -318.88232422 196.82763672 C-314.52559655 193.42484539 -310.23482388 189.94879057 -305.96484375 186.4375 C-297.3980773 179.39446671 -288.80852369 172.38220345 -280.0625 165.5625 C-274.06169693 160.88268255 -268.19037012 156.05641858 -262.32983398 151.20263672 C-257.24112617 146.99738913 -252.08650766 142.88862044 -246.88232422 138.82763672 C-242.52559655 135.42484539 -238.23482388 131.94879057 -233.96484375 128.4375 C-224.69841506 120.81925032 -215.38435672 113.26775684 -205.93383789 105.87890625 C-200.55504803 101.66734986 -195.27570201 97.33980218 -190 93 C-187.3576386 90.82906229 -184.71101475 88.66342498 -182.0625 86.5 C-181.44262207 85.99033691 -180.82274414 85.48067383 -180.18408203 84.95556641 C-178.13695925 83.2853374 -176.06833816 81.64387333 -174 80 C-173.1541333 79.30036133 -172.3082666 78.60072266 -171.43676758 77.87988281 C-163.09468434 71.23593538 -154.26641248 67.03165014 -144.5625 62.75 C-142.9110173 62.0079341 -141.26014688 61.26450417 -139.60986328 60.51977539 C-135.50174562 58.66973975 -131.38652638 56.83620238 -127.26849365 55.00836182 C-123.96285517 53.53898163 -120.662818 52.05723773 -117.36328125 50.57421875 C-113.87514164 49.0076529 -110.3863941 47.44258678 -106.89477539 45.88378906 C-97.40369317 41.64567829 -87.94909284 37.33072739 -78.5 33 C-65.40868801 27.00138833 -52.29343713 21.06189919 -39.140625 15.19921875 C-34.72376561 13.22815517 -30.31801682 11.23526318 -25.92276001 9.21665955 C-23.22623869 7.97891107 -20.52653436 6.74819419 -17.82659912 5.51791382 C-16.53548423 4.9271909 -15.24593954 4.33302277 -13.95806885 3.73526001 C-12.18180069 2.91112824 -10.39962201 2.09977142 -8.6171875 1.2890625 C-7.09520752 0.58837646 -7.09520752 0.58837646 -5.54248047 -0.12646484 C-3 -1 -3 -1 0 0 Z " fill="#005B9E" transform="translate(944,199)"/>
<path d="M0 0 C2.30932617 0.16601562 2.30932617 0.16601562 4.55932617 2.60351562 C6.64949256 6.85849721 7.10116728 10.48244049 7.30932617 15.16601562 C3.88358681 15.94130041 0.73693372 16.2852034 -2.77270508 16.26367188 C-3.70405273 16.26044922 -4.63540039 16.25722656 -5.5949707 16.25390625 C-6.55467773 16.24552734 -7.51438477 16.23714844 -8.50317383 16.22851562 C-9.4822168 16.22400391 -10.46125977 16.21949219 -11.4699707 16.21484375 C-13.87693493 16.20310246 -16.2837724 16.18667982 -18.69067383 16.16601562 C-20.69067383 11.16601562 -22.69067383 6.16601562 -24.69067383 1.16601562 C-21.12826033 0.99746555 -17.56573058 0.8315079 -14.00317383 0.66601562 C-12.99577148 0.61832031 -11.98836914 0.570625 -10.95043945 0.52148438 C-9.48574219 0.45380859 -9.48574219 0.45380859 -7.99145508 0.38476562 C-7.09595947 0.34287109 -6.20046387 0.30097656 -5.27783203 0.2578125 C-3.51756469 0.19535515 -1.75803186 0.10847125 0 0 Z " fill="#B1B1B3" transform="translate(254.690673828125,877.833984375)"/>
<path d="M0 0 C0 7.26 0 14.52 0 22 C-8.57123899 21.61390815 -15.98009959 21.23610017 -24 18 C-23.48077771 13.46444061 -23.48077771 13.46444061 -21.390625 11.4453125 C-20.68421875 11.00960937 -19.9778125 10.57390625 -19.25 10.125 C-18.05117187 9.3825 -18.05117187 9.3825 -16.828125 8.625 C-1.81730769 0 -1.81730769 0 0 0 Z " fill="#000000" transform="translate(1070,973)"/>
<path d="M0 0 C3.12611591 -0.49037112 5.89386855 -0.68157993 9 0 C13.61045285 4.41700727 14.84644661 10.05034647 15.16796875 16.2265625 C15.17441406 17.34804688 15.18085937 18.46953125 15.1875 19.625 C15.20167969 20.75164063 15.21585938 21.87828125 15.23046875 23.0390625 C15 26 15 26 13 29 C9.02059848 27.50115053 7.56536515 25.25287411 5.375 21.6875 C4.78460937 20.74261719 4.19421875 19.79773438 3.5859375 18.82421875 C0.91825696 14.07364478 -0.25709018 10.66924253 -0.125 5.1875 C-0.10695313 4.21167969 -0.08890625 3.23585938 -0.0703125 2.23046875 C-0.04710937 1.49441406 -0.02390625 0.75835938 0 0 Z " fill="#005C9E" transform="translate(898,751)"/>
<path d="M0 0 C1.02996094 -0.00128906 2.05992187 -0.00257813 3.12109375 -0.00390625 C4.74724609 0.00189453 4.74724609 0.00189453 6.40625 0.0078125 C7.49035156 0.00394531 8.57445312 0.00007812 9.69140625 -0.00390625 C10.72136719 -0.00261719 11.75132812 -0.00132812 12.8125 0 C14.24045898 0.00169189 14.24045898 0.00169189 15.69726562 0.00341797 C17.90625 0.1328125 17.90625 0.1328125 18.90625 1.1328125 C18.94717937 3.46578683 18.94866723 5.79986475 18.90625 8.1328125 C13.69476158 10.53811485 8.62077658 12.11071335 3.03125 13.3828125 C1.87496094 13.66125 1.87496094 13.66125 0.6953125 13.9453125 C-1.22342354 14.39121595 -3.15786225 14.76850977 -5.09375 15.1328125 C-6.09375 14.1328125 -6.09375 14.1328125 -6.2265625 11.2265625 C-6.22398437 10.040625 -6.22140625 8.8546875 -6.21875 7.6328125 C-6.22132813 6.446875 -6.22390625 5.2609375 -6.2265625 4.0390625 C-6.00669484 -0.77215928 -4.34531534 0.00514848 0 0 Z " fill="#B0B2B4" transform="translate(148.09375,950.8671875)"/>
<path d="M0 0 C17.82 0 35.64 0 54 0 C40.93914644 8.70723571 17.26963986 7.19966026 2 8 C0.23537317 4.91190305 0 3.76687864 0 0 Z " fill="#000000" transform="translate(616,860)"/>
<path d="M0 0 C2.52545076 0.05470635 5.01638376 0.17304297 7.53515625 0.33984375 C8.66503212 0.40855431 8.66503212 0.40855431 9.81773376 0.47865295 C12.23299019 0.62667264 14.64771417 0.78200878 17.0625 0.9375 C18.69593377 1.03889224 20.32939707 1.13980999 21.96289062 1.24023438 C25.97562425 1.48797699 29.98789506 1.74228401 34 2 C34.495 4.475 34.495 4.475 35 7 C18.5 7 2 7 -15 7 C-15 5.35 -15 3.7 -15 2 C-14.00097656 1.93941406 -13.00195312 1.87882813 -11.97265625 1.81640625 C-10.68230469 1.73261719 -9.39195312 1.64882813 -8.0625 1.5625 C-6.77472656 1.48128906 -5.48695313 1.40007813 -4.16015625 1.31640625 C-1.13976043 1.35080812 -1.13976043 1.35080812 0 0 Z " fill="#B1B2B3" transform="translate(497,1010)"/>
<path d="M0 0 C7.52091022 0.37604551 15.11302657 1.88752277 22 5 C23.37890625 7.13671875 23.37890625 7.13671875 24 9 C21.72258763 11.64536472 20.06055868 12.48876449 16.65625 13.16796875 C15.82222656 13.33876953 14.98820313 13.50957031 14.12890625 13.68554688 C13.26136719 13.85119141 12.39382812 14.01683594 11.5 14.1875 C10.19869141 14.45336914 10.19869141 14.45336914 8.87109375 14.72460938 C5.5082531 15.39769726 2.43869919 16 -1 16 C-1.02685095 13.52076199 -1.04676547 11.0418116 -1.0625 8.5625 C-1.07506836 7.50192383 -1.07506836 7.50192383 -1.08789062 6.41992188 C-1.09653588 4.61306441 -1.05220011 2.80612397 -1 1 C-0.67 0.67 -0.34 0.34 0 0 Z " fill="#B0B2B4" transform="translate(143,894)"/>
<path d="M0 0 C0 1.65 0 3.3 0 5 C-17.82 5 -35.64 5 -54 5 C-54 4.34 -54 3.68 -54 3 C-39.93433903 -4.03283048 -15.61136046 -0.20603826 0 0 Z " fill="#000000" transform="translate(1020,1013)"/>
<path d="M0 0 C0 0.66 0 1.32 0 2 C-11.70954775 2.13339991 -23.31514365 1.76532392 -35 1 C-35 2.98 -35 4.96 -35 7 C-38.65396407 6.38821244 -40.86042559 4.8335544 -43.75 2.5625 C-44.54921875 1.94503906 -45.3484375 1.32757812 -46.171875 0.69140625 C-46.77515625 0.13324219 -47.3784375 -0.42492187 -48 -1 C-48 -1.66 -48 -2.32 -48 -3 C-35.78886816 -9.10556592 -13.0907086 -2.00922806 0 0 Z " fill="#005B9E" transform="translate(781,873)"/>
<path d="M0 0 C0 1.65 0 3.3 0 5 C-17.82 5 -35.64 5 -54 5 C-54 4.01 -54 3.02 -54 2 C-48.16716302 1.01593701 -42.4516588 0.78843202 -36.54296875 0.68359375 C-35.55879471 0.66281265 -34.57462067 0.64203156 -33.56062317 0.62062073 C-30.43631508 0.55559979 -27.31192722 0.4964878 -24.1875 0.4375 C-22.06835148 0.39426529 -19.94921071 0.35064948 -17.83007812 0.30664062 C-2.88463548 0 -2.88463548 0 0 0 Z " fill="#B1B2B4" transform="translate(440,1012)"/>
<path d="M0 0 C4.83408865 0.12031062 9.66805357 0.24463191 14.50195312 0.37231445 C16.13864501 0.41502328 17.7753635 0.45672713 19.41210938 0.49731445 C30.29591965 0.76807263 41.13870581 1.23690045 52 2 C52 2.99 52 3.98 52 5 C34.51 5 17.02 5 -1 5 C-0.67 3.35 -0.34 1.7 0 0 Z " fill="#000000" transform="translate(1031,1013)"/>
<path d="M0 0 C1 1 1 1 1.1328125 2.8125 C1.13023437 3.534375 1.12765625 4.25625 1.125 5 C1.12886719 6.0828125 1.12886719 6.0828125 1.1328125 7.1875 C1 9 1 9 0 10 C-1.41570123 10.08651611 -2.835595 10.10704904 -4.25390625 10.09765625 C-5.10791016 10.09443359 -5.96191406 10.09121094 -6.84179688 10.08789062 C-7.73962891 10.07951172 -8.63746094 10.07113281 -9.5625 10.0625 C-10.46419922 10.05798828 -11.36589844 10.05347656 -12.29492188 10.04882812 C-14.53001314 10.03700225 -16.76497437 10.0205222 -19 10 C-19.33 8.35 -19.66 6.7 -20 5 C-13.47085635 2.06854775 -7.30961172 -0.52211512 0 0 Z " fill="#005B9E" transform="translate(745,695)"/>
<path d="M0 0 C1.27617187 0.02320313 2.55234375 0.04640625 3.8671875 0.0703125 C5.78917969 0.09738281 5.78917969 0.09738281 7.75 0.125 C9.23113281 0.15980469 9.23113281 0.15980469 10.7421875 0.1953125 C10.03846404 5.17014966 9.13144655 8.34804547 5.7421875 12.1953125 C2.4921875 12.5703125 2.4921875 12.5703125 -0.2578125 12.1953125 C-1.9078125 8.8953125 -3.5578125 5.5953125 -5.2578125 2.1953125 C-3.2578125 0.1953125 -3.2578125 0.1953125 0 0 Z " fill="#005B9E" transform="translate(390.2578125,803.8046875)"/>
<path d="M0 0 C8.38637251 -1.0630613 8.38637251 -1.0630613 12.15234375 1.41796875 C15.12381227 4.36430857 17.24727962 7.19120379 19 11 C12.27336596 10.55765899 6.61363958 9.68108743 1.0625 5.5625 C0 4 0 4 0 0 Z " fill="#005B9E" transform="translate(563,863)"/>
<path d="M0 0 C0 2.97 0 5.94 0 9 C-5.61 8.67 -11.22 8.34 -17 8 C-15 3 -15 3 -13.30078125 1.85546875 C-8.66436309 0.29785086 -4.89287251 -0.30580453 0 0 Z " fill="#B1B1B4" transform="translate(167,1009)"/>
<path d="M0 0 C2.02910711 0.25327449 4.04962145 0.57730068 6.0625 0.9375 C7.16722656 1.13214844 8.27195312 1.32679688 9.41015625 1.52734375 C10.69212891 1.76130859 10.69212891 1.76130859 12 2 C12.125 7.75 12.125 7.75 11 10 C9.20866022 10.05391993 7.41686101 10.09275571 5.625 10.125 C4.62726563 10.14820313 3.62953125 10.17140625 2.6015625 10.1953125 C0 10 0 10 -2 8 C-1.42307692 1.42307692 -1.42307692 1.42307692 0 0 Z " fill="#005C9D" transform="translate(312,786)"/>
<path d="M0 0 C-1.27721526 4.99275057 -3.17330957 7.57611908 -7 11 C-9.45103548 10.01958581 -10.76758786 9.3486182 -12.25 7.125 C-13 5 -13 5 -13 1 C-4.57142857 -1.42857143 -4.57142857 -1.42857143 0 0 Z " fill="#005C9D" transform="translate(368,742)"/>
<path d="M0 0 C1.0625 2.375 1.0625 2.375 2 5 C1.67 5.66 1.34 6.32 1 7 C-4.75367546 8.19041561 -8.48968737 7.95156906 -14 6 C-14 4.68 -14 3.36 -14 2 C-9.35150485 -0.3992233 -5.08913926 -0.19957409 0 0 Z " fill="#000000" transform="translate(699,1000)"/>
<path d="M0 0 C1.50626953 0.00676758 1.50626953 0.00676758 3.04296875 0.01367188 C5.48704471 0.02531033 7.9309882 0.0416576 10.375 0.0625 C10.045 0.7225 9.715 1.3825 9.375 2.0625 C3.74488018 3.83517631 -1.37514079 4.37589776 -7.25 4.3125 C-8.33667969 4.32410156 -8.33667969 4.32410156 -9.4453125 4.3359375 C-13.88441067 4.31985381 -17.44318015 3.72467445 -21.625 2.0625 C-21.625 1.7325 -21.625 1.4025 -21.625 1.0625 C-14.39068401 0.18179203 -7.2831629 -0.06320502 0 0 Z " fill="#B1B2B4" transform="translate(298.625,1015.9375)"/>
<path d="M0 0 C5.74389224 -0.34463353 10.04518673 -0.34449896 15 3 C15.33 3.99 15.66 4.98 16 6 C12.55902171 8.1175251 10.00664919 8.54993224 6 8 C3.48283424 6.54642541 1.23608243 4.85237598 -1 3 C-0.67 2.01 -0.34 1.02 0 0 Z " fill="#B1B2B4" transform="translate(501,873)"/>
<path d="M0 0 C0.495 0.99 0.495 0.99 1 2 C-11.21 2 -23.42 2 -36 2 C-36 1.67 -36 1.34 -36 1 C-23.98181423 0.13826069 -12.04753921 -0.11902069 0 0 Z " fill="#B0B2B3" transform="translate(366,1015)"/>
<path d="M0 0 C0 2.64 0 5.28 0 8 C-7.75 7.125 -7.75 7.125 -10 6 C-9 3 -9 3 -7.1875 2.05078125 C-6.465625 1.80714844 -5.74375 1.56351563 -5 1.3125 C-4.278125 1.06113281 -3.55625 0.80976562 -2.8125 0.55078125 C-1 0 -1 0 0 0 Z " fill="#000000" transform="translate(1003,876)"/>
<path d="M0 0 C3.36720387 1.39332574 4.9859524 2.9789286 7 6 C4.03 6 1.06 6 -2 6 C-1.34 4.02 -0.68 2.04 0 0 Z " fill="#005B9E" transform="translate(834,885)"/>
<path d="M0 0 C1.91789713 0.28346278 3.83429183 0.5771028 5.75 0.875 C7.35101562 1.11863281 7.35101562 1.11863281 8.984375 1.3671875 C11.67708871 1.93223882 13.63572439 2.63422914 16 4 C12.11764181 5.49828872 9.56550712 4.43110582 5.75 3.0625 C4.67234375 2.68222656 3.5946875 2.30195312 2.484375 1.91015625 C1.66453125 1.60980469 0.8446875 1.30945313 0 1 C0 0.67 0 0.34 0 0 Z " fill="#B0B2B3" transform="translate(577,965)"/>
<path d="M0 0 C5.28 0 10.56 0 16 0 C16 0.33 16 0.66 16 1 C8.08 1.495 8.08 1.495 0 2 C0 1.34 0 0.68 0 0 Z " fill="#B1B2B4" transform="translate(143,861)"/>
<path d="M0 0 C2 1 2 1 2 1 Z " fill="#005C9E" transform="translate(880,751)"/>
</svg>
